<svg width="614" height="338" viewBox="0 0 614 338" fill="none" xmlns="http://www.w3.org/2000/svg">
<path d="M61.0833 242.197C41.1276 206.984 15.1087 173.793 6.29885 172.189C4.12731 220.838 12.8135 319.799 64.9304 326.444C78.2145 328.138 84.4557 322.875 85.8083 313.392M61.0833 242.197C75.395 218.861 106.95 172.189 118.676 172.189C133.334 172.189 116.458 287.287 85.8083 313.392M61.0833 242.197C76.3701 269.171 88.0988 297.333 85.8083 313.392M61.0833 242.197V128.285M61.0833 128.285C104.911 118.792 114.483 105.344 113.79 99.8071V12L85.8083 32.7155M61.0833 128.285C45.2677 125.108 16.1135 114.178 12.8136 94.3145M12.8136 94.3145C12.4166 91.9245 12.3938 89.4053 12.8136 86.7547M12.8136 94.3145V86.7547M12.8136 86.7547V12L38.4585 30.9853M12.8136 86.7547L63.3019 49.3773M63.3019 49.3773L38.4585 30.9853M63.3019 49.3773L85.8083 32.7155M38.4585 30.9853L63.3019 12L85.8083 32.7155" stroke="#BD123C" stroke-width="12"/>
<path d="M221.328 288.311C220.583 288.187 219.653 288.095 218.536 288.033C217.481 287.972 216.458 287.941 215.465 287.941C214.348 287.941 213.169 287.972 211.928 288.033C210.625 288.095 209.322 288.157 208.019 288.218C206.903 288.28 205.631 288.372 204.204 288.496C202.839 288.557 201.505 288.65 200.202 288.773C200.698 288.526 201.132 288.187 201.505 287.756C201.939 287.324 202.311 286.893 202.622 286.462C202.932 285.968 203.211 285.445 203.459 284.89C203.769 283.965 203.738 282.856 203.366 281.561C202.994 280.206 202.311 278.973 201.319 277.863C200.388 276.754 199.178 275.891 197.689 275.275C196.262 274.597 194.68 274.443 192.943 274.812C191.081 275.244 189.406 275.891 187.917 276.754C186.49 277.617 185.28 278.819 184.287 280.36C183.357 281.839 182.674 283.688 182.24 285.907C181.868 288.064 181.774 290.653 181.961 293.673C182.209 297.433 182.829 300.422 183.822 302.641C184.815 304.86 186.025 306.524 187.452 307.633C188.879 308.743 190.43 309.421 192.105 309.667C193.842 309.852 195.548 309.852 197.224 309.667C198.402 309.421 199.488 308.897 200.481 308.096C201.288 307.418 202.032 306.432 202.715 305.137C203.397 303.843 203.707 302.055 203.645 299.775L214.999 299.313C213.697 302.949 212.114 305.846 210.253 308.003C208.392 310.099 206.592 311.732 204.855 312.903C202.808 314.259 200.76 315.184 198.713 315.677C196.169 316.108 193.904 316.293 191.919 316.232C189.933 316.108 188.134 315.8 186.521 315.307C184.908 314.814 183.419 314.198 182.054 313.458C180.689 312.718 179.386 311.917 178.145 311.054C177.338 310.5 176.439 309.575 175.446 308.281C174.453 306.986 173.523 305.445 172.654 303.658C171.785 301.809 171.072 299.775 170.513 297.556C169.955 295.337 169.738 293.057 169.862 290.714C169.986 288.311 170.544 285.907 171.537 283.503C172.53 281.099 174.112 278.788 176.284 276.569C179.572 273.241 183.077 271.083 186.8 270.097C190.585 269.049 194.152 268.772 197.503 269.265C200.853 269.697 203.831 270.652 206.437 272.131C209.043 273.61 210.873 275.213 211.928 276.939C212.983 278.665 213.759 279.99 214.255 280.914C214.813 281.777 215.217 282.455 215.465 282.948C215.775 283.38 216.023 283.719 216.209 283.965C216.458 284.15 216.799 284.428 217.233 284.797C217.543 285.106 217.916 285.445 218.35 285.814C218.722 286.123 219.156 286.492 219.653 286.924C220.149 287.355 220.708 287.818 221.328 288.311Z" fill="#BD123C"/>
<path d="M244.874 279.712C246.487 279.712 248.162 280.021 249.9 280.637C251.637 281.192 253.312 281.931 254.925 282.856C256.538 283.719 257.997 284.674 259.299 285.722C260.664 286.708 261.781 287.663 262.65 288.588C264.201 290.252 265.256 292.502 265.814 295.337C266.435 298.111 266.559 300.977 266.186 303.935C265.814 306.832 264.946 309.575 263.581 312.164C262.216 314.752 260.323 316.663 257.903 317.896C256.166 318.759 254.46 319.437 252.785 319.93C251.11 320.423 249.496 320.793 247.945 321.039C246.394 321.286 244.936 321.409 243.571 321.409C242.206 321.409 241.027 321.378 240.035 321.317C238.173 321.193 236.219 320.546 234.171 319.375C232.186 318.204 230.294 316.756 228.494 315.03C226.757 313.304 225.268 311.424 224.027 309.39C222.786 307.294 222.042 305.322 221.793 303.473C221.421 300.946 221.359 298.296 221.607 295.522C221.855 292.748 222.755 290.191 224.306 287.848C225.919 285.506 228.339 283.565 231.565 282.024C234.854 280.483 239.29 279.712 244.874 279.712ZM241.803 315.585C242.485 315.708 243.416 315.554 244.595 315.122C245.774 314.629 246.922 313.859 248.038 312.811C249.217 311.763 250.241 310.438 251.11 308.835C252.04 307.171 252.599 305.168 252.785 302.826C252.971 300.545 252.971 298.45 252.785 296.539C252.661 294.628 252.381 292.964 251.947 291.547C251.513 290.067 251.016 288.865 250.458 287.941C249.9 287.016 249.31 286.369 248.69 285.999C247.635 285.445 246.363 285.013 244.874 284.705C243.385 284.335 242.113 284.397 241.058 284.89C240.562 285.136 239.941 285.66 239.197 286.462C238.452 287.263 237.708 288.28 236.963 289.513C236.219 290.684 235.536 292.04 234.916 293.58C234.357 295.121 233.954 296.724 233.706 298.388C233.458 300.052 233.396 301.84 233.52 303.75C233.706 305.661 234.109 307.479 234.73 309.205C235.35 310.869 236.219 312.318 237.336 313.551C238.514 314.722 240.004 315.4 241.803 315.585Z" fill="#BD123C"/>
<path d="M273.539 310.962C273.973 308.928 274.283 307.14 274.469 305.599C274.718 303.997 274.904 302.672 275.028 301.624C275.152 300.391 275.214 299.343 275.214 298.481C275.152 297.433 275.09 296.2 275.028 294.782C275.028 293.303 274.966 291.855 274.842 290.437C274.78 288.958 274.687 287.663 274.562 286.554C274.438 285.383 274.283 284.551 274.097 284.058C273.849 283.565 273.508 283.041 273.073 282.486C272.205 281.438 270.933 280.421 269.258 279.435C270.685 279.127 271.895 278.88 272.887 278.695C273.942 278.449 274.811 278.233 275.493 278.048C276.238 277.802 276.889 277.586 277.448 277.401C277.944 277.216 278.533 277.031 279.216 276.846C279.774 276.723 280.457 276.569 281.263 276.384C282.07 276.199 283.001 275.983 284.055 275.737L283.776 284.15C285.762 281.808 287.778 280.051 289.825 278.88C291.873 277.709 293.796 276.877 295.596 276.384C297.643 275.768 299.66 275.46 301.645 275.46C304.127 275.583 306.422 275.983 308.532 276.661C310.704 277.339 312.565 278.141 314.116 279.065C315.729 279.928 317.032 280.853 318.025 281.839C319.018 282.825 319.607 283.688 319.793 284.428C320.538 286.831 320.724 289.05 320.352 291.084C319.979 293.057 319.483 294.998 318.862 296.909C318.304 298.758 317.808 300.607 317.373 302.456C317.001 304.305 317.156 306.308 317.839 308.466C318.087 309.02 318.335 309.575 318.583 310.13C318.831 310.623 319.142 311.116 319.514 311.609C319.886 312.102 320.32 312.503 320.817 312.811C320.134 312.749 319.452 312.718 318.769 312.718C318.087 312.657 317.466 312.595 316.908 312.534C316.226 312.472 315.605 312.41 315.047 312.349C314.426 312.287 313.589 312.256 312.534 312.256C310.735 312.256 307.943 312.349 304.158 312.534C304.716 311.239 305.151 310.161 305.461 309.298C305.833 308.373 306.143 307.633 306.391 307.079C306.64 306.401 306.826 305.877 306.95 305.507C307.694 303.72 308.129 301.686 308.253 299.405C308.439 297.125 308.284 294.813 307.787 292.471C307.601 291.67 307.291 290.714 306.857 289.605C306.422 288.496 305.833 287.417 305.089 286.369C304.406 285.321 303.568 284.428 302.576 283.688C301.645 282.948 300.559 282.517 299.318 282.394C298.077 282.27 296.681 282.578 295.13 283.318C293.641 284.058 292.028 285.414 290.291 287.386C288.988 289.05 287.964 291.084 287.22 293.488C286.537 295.522 286.072 298.08 285.824 301.162C285.575 304.182 285.948 307.726 286.94 311.794C286.072 311.671 285.265 311.609 284.521 311.609C283.776 311.547 283.156 311.486 282.659 311.424C282.039 311.362 281.48 311.301 280.984 311.239C280.426 311.239 279.805 311.208 279.123 311.147C278.502 311.147 277.727 311.147 276.796 311.147C275.865 311.085 274.78 311.023 273.539 310.962Z" fill="#BD123C"/>
<path d="M325.377 262.886C327.238 263.071 328.79 263.225 330.031 263.348C331.333 263.471 332.388 263.564 333.195 263.625C334.125 263.687 334.87 263.718 335.428 263.718C335.987 263.78 336.731 263.78 337.662 263.718C338.469 263.656 339.523 263.595 340.826 263.533C342.129 263.41 343.773 263.225 345.759 262.978C345.325 263.595 344.983 264.149 344.735 264.642C344.487 265.074 344.27 265.475 344.084 265.844L343.525 266.954C343.401 267.324 343.277 267.693 343.153 268.063C343.029 268.371 342.905 268.741 342.781 269.173C342.719 269.604 342.657 270.066 342.595 270.559H356.927L355.624 278.048L342.501 277.309C342.191 280.452 341.974 282.887 341.85 284.612C341.726 286.338 341.602 287.602 341.478 288.403L341.292 290.067C341.105 292.409 340.919 294.967 340.733 297.741C340.547 300.453 340.485 302.98 340.547 305.322C340.609 307.664 340.826 309.637 341.199 311.239C341.571 312.78 342.222 313.551 343.153 313.551C344.084 313.551 344.952 313.304 345.759 312.811C346.565 312.318 347.248 311.732 347.806 311.054C348.427 310.376 348.892 309.698 349.202 309.02C349.513 308.281 349.668 307.726 349.668 307.356C349.668 306.986 349.575 306.555 349.388 306.062C349.078 305.137 348.52 303.966 347.713 302.549C349.513 302.98 351.095 303.411 352.46 303.843C353.142 304.089 353.763 304.336 354.321 304.583C354.941 304.829 355.655 305.106 356.462 305.415C357.144 305.723 358.013 306.093 359.067 306.524C360.122 306.955 361.363 307.479 362.79 308.096C361.425 308.342 360.432 308.743 359.812 309.298C359.44 309.544 359.161 309.822 358.974 310.13C358.54 310.808 358.044 311.732 357.485 312.903C356.927 314.013 356.089 315.122 354.973 316.232C353.856 317.341 352.336 318.327 350.412 319.19C348.551 320.053 346.038 320.546 342.874 320.669C339.585 320.793 337.073 320.238 335.335 319.005C333.66 317.773 332.419 316.355 331.613 314.752C330.868 313.088 330.434 311.455 330.31 309.852C330.186 308.25 330.093 307.171 330.031 306.616C329.968 306.062 329.968 304.675 330.031 302.456C330.093 300.237 330.186 297.803 330.31 295.152C330.434 292.44 330.558 289.852 330.682 287.386C330.806 284.859 330.868 283.01 330.868 281.839C330.868 281.223 330.899 280.575 330.961 279.897C330.961 279.343 330.961 278.757 330.961 278.141C331.023 277.463 331.054 276.816 331.054 276.199L317.559 276.107L317.001 270.837L330.589 271.207C330.465 270.529 330.31 269.912 330.124 269.358C329.999 268.741 329.875 268.248 329.751 267.878C329.565 267.447 329.379 267.077 329.193 266.769C328.945 266.461 328.666 266.122 328.355 265.752C328.045 265.444 327.642 265.043 327.145 264.55C326.649 264.057 326.06 263.502 325.377 262.886Z" fill="#BD123C"/>
<path d="M358.974 279.805L376.099 279.99C375.106 283.75 374.361 286.955 373.865 289.605C373.431 292.255 373.152 294.474 373.028 296.262C372.779 298.296 372.717 300.021 372.841 301.439C373.028 302.733 373.338 304.12 373.772 305.599C374.144 306.832 374.703 308.25 375.447 309.852C376.192 311.455 377.185 313.057 378.425 314.66C377.681 314.413 376.874 314.229 376.006 314.105C375.137 313.982 374.33 313.89 373.586 313.828C372.717 313.766 371.849 313.766 370.98 313.828C370.111 313.89 369.15 313.982 368.095 314.105C367.226 314.229 366.172 314.383 364.931 314.568C363.69 314.752 362.387 314.999 361.022 315.307C361.953 312.534 362.666 310.13 363.162 308.096C363.721 306.062 364.124 304.367 364.372 303.011C364.62 301.408 364.776 300.114 364.838 299.128C364.838 297.895 364.838 296.508 364.838 294.967C364.838 293.365 364.838 291.824 364.838 290.345C364.838 288.865 364.807 287.571 364.745 286.462C364.683 285.29 364.558 284.551 364.372 284.243L363.442 283.318C363.069 283.01 362.511 282.578 361.766 282.024C361.084 281.407 360.153 280.668 358.974 279.805ZM365.582 265.567C366.885 264.889 368.188 264.704 369.491 265.012C370.856 265.32 371.911 265.906 372.655 266.769C373.4 267.632 373.648 268.649 373.4 269.82C373.214 270.991 372.221 272.131 370.422 273.241C368.622 274.288 367.04 274.658 365.675 274.35C364.31 274.042 363.349 273.395 362.79 272.409C362.232 271.422 362.139 270.282 362.511 268.988C362.883 267.632 363.907 266.492 365.582 265.567Z" fill="#BD123C"/>
<path d="M425.704 281.931C425.517 280.699 425.362 279.682 425.238 278.88C425.114 278.017 424.99 277.339 424.866 276.846C424.742 276.23 424.649 275.768 424.587 275.46C424.463 275.151 424.308 274.812 424.121 274.443C423.997 274.134 423.78 273.765 423.47 273.333C423.222 272.902 422.912 272.409 422.539 271.854C423.346 272.1 424.152 272.254 424.959 272.316C425.828 272.378 426.634 272.439 427.379 272.501C428.185 272.563 429.023 272.563 429.892 272.501C430.76 272.501 431.753 272.47 432.87 272.409C433.862 272.347 435.041 272.316 436.406 272.316C437.833 272.254 439.446 272.162 441.246 272.039C440.191 272.285 439.291 272.717 438.547 273.333C437.864 273.888 437.275 274.504 436.779 275.182C436.22 275.922 435.755 276.723 435.383 277.586C435.072 278.387 434.886 279.928 434.824 282.209C434.762 284.428 434.762 287.078 434.824 290.16C434.886 293.18 434.948 296.447 435.01 299.96C435.134 303.473 435.196 306.832 435.196 310.037C435.258 313.242 435.258 316.17 435.196 318.82C435.134 321.409 434.979 323.32 434.731 324.553C433.862 328.436 432.249 331.579 429.892 333.983C427.534 336.448 424.432 337.773 420.585 337.958C415.932 338.143 412.24 337.712 409.51 336.664C406.842 335.616 404.763 334.322 403.274 332.781C401.785 331.302 400.668 329.792 399.924 328.251C399.179 326.71 398.404 325.539 397.597 324.737C396.853 324.059 396.108 323.412 395.364 322.796C394.681 322.303 393.968 321.81 393.223 321.317C392.541 320.824 391.858 320.515 391.176 320.392C392.975 320.454 394.588 320.485 396.015 320.485C397.442 320.485 398.652 320.485 399.645 320.485C400.762 320.485 401.754 320.454 402.623 320.392H414.07C412.829 320.762 411.899 321.163 411.278 321.594C410.658 322.087 410.223 322.58 409.975 323.073C409.727 323.628 409.603 324.183 409.603 324.737C409.851 326.217 410.658 327.295 412.023 327.973C413.388 328.651 415.249 329.052 417.607 329.175C419.902 329.298 421.485 329.237 422.353 328.99C423.222 328.805 423.904 328.436 424.401 327.881C425.393 326.402 426.231 324.491 426.913 322.149C427.41 320.176 427.751 317.618 427.937 314.475C428.185 311.27 427.906 307.356 427.1 302.733C425.114 305.445 422.818 307.479 420.213 308.835C417.607 310.191 415.125 311.178 412.767 311.794C409.975 312.472 407.152 312.811 404.298 312.811C396.791 312.503 391.176 310.777 387.453 307.633C383.73 304.49 382.024 300.268 382.334 294.967C382.52 292.317 383.327 289.667 384.754 287.016C386.243 284.366 388.166 281.993 390.524 279.897C392.944 277.802 395.705 276.138 398.807 274.905C401.909 273.672 405.136 273.148 408.486 273.333C411.03 273.58 413.419 274.042 415.652 274.72C417.576 275.336 419.468 276.199 421.329 277.309C423.253 278.418 424.711 279.959 425.704 281.931ZM396.108 291.177C395.736 293.58 395.891 295.83 396.574 297.926C397.318 300.021 398.342 301.84 399.645 303.381C400.948 304.86 402.406 306.031 404.019 306.894C405.632 307.695 407.152 308.065 408.579 308.003C411.557 307.942 414.132 306.616 416.304 304.028C418.475 301.377 419.778 297.433 420.213 292.194C420.399 289.605 420.057 287.386 419.189 285.537C418.382 283.626 417.359 282.085 416.118 280.914C414.877 279.743 413.574 278.911 412.209 278.418C410.844 277.925 409.758 277.709 408.951 277.771C407.835 277.894 406.594 278.233 405.229 278.788C403.926 279.281 402.654 280.051 401.413 281.099C400.172 282.085 399.055 283.411 398.063 285.075C397.132 286.739 396.48 288.773 396.108 291.177Z" fill="#BD123C"/>
<path d="M467.025 279.712C468.639 279.712 470.314 280.021 472.051 280.637C473.788 281.192 475.463 281.931 477.077 282.856C478.69 283.719 480.148 284.674 481.451 285.722C482.816 286.708 483.933 287.663 484.801 288.588C486.352 290.252 487.407 292.502 487.966 295.337C488.586 298.111 488.71 300.977 488.338 303.935C487.966 306.832 487.097 309.575 485.732 312.164C484.367 314.752 482.475 316.663 480.055 317.896C478.318 318.759 476.611 319.437 474.936 319.93C473.261 320.423 471.648 320.793 470.097 321.039C468.546 321.286 467.087 321.409 465.722 321.409C464.357 321.409 463.179 321.378 462.186 321.317C460.325 321.193 458.37 320.546 456.323 319.375C454.337 318.204 452.445 316.756 450.646 315.03C448.908 313.304 447.419 311.424 446.178 309.39C444.937 307.294 444.193 305.322 443.945 303.473C443.572 300.946 443.51 298.296 443.759 295.522C444.007 292.748 444.906 290.191 446.458 287.848C448.071 285.506 450.49 283.565 453.717 282.024C457.005 280.483 461.441 279.712 467.025 279.712ZM463.954 315.585C464.637 315.708 465.567 315.554 466.746 315.122C467.925 314.629 469.073 313.859 470.19 312.811C471.369 311.763 472.392 310.438 473.261 308.835C474.192 307.171 474.75 305.168 474.936 302.826C475.122 300.545 475.122 298.45 474.936 296.539C474.812 294.628 474.533 292.964 474.099 291.547C473.664 290.067 473.168 288.865 472.609 287.941C472.051 287.016 471.462 286.369 470.841 285.999C469.786 285.445 468.514 285.013 467.025 284.705C465.536 284.335 464.264 284.397 463.21 284.89C462.713 285.136 462.093 285.66 461.348 286.462C460.604 287.263 459.859 288.28 459.115 289.513C458.37 290.684 457.688 292.04 457.067 293.58C456.509 295.121 456.105 296.724 455.857 298.388C455.609 300.052 455.547 301.84 455.671 303.75C455.857 305.661 456.261 307.479 456.881 309.205C457.502 310.869 458.37 312.318 459.487 313.551C460.666 314.722 462.155 315.4 463.954 315.585Z" fill="#BD123C"/>
<path d="M169 155.796C171.476 156.086 173.552 156.303 175.227 156.447C176.975 156.52 178.396 156.628 179.488 156.773C180.799 156.918 181.819 156.99 182.547 156.99C183.349 157.062 184.55 157.026 186.153 156.881C187.537 156.737 189.394 156.556 191.725 156.339C194.128 156.122 197.187 155.796 200.902 155.362C199.227 156.809 197.879 158.22 196.859 159.595C195.913 160.897 195.184 162.055 194.674 163.068C194.019 164.298 193.618 165.456 193.473 166.541C193.181 168.277 192.926 170.665 192.708 173.704C192.562 176.671 192.417 179.927 192.271 183.472C192.125 187.017 192.052 190.671 192.052 194.434C192.052 198.196 192.089 201.778 192.162 205.179C192.307 208.507 192.526 211.473 192.817 214.078C193.181 216.683 193.618 218.564 194.128 219.722C194.856 221.024 195.621 222.327 196.422 223.629C197.151 224.714 198.025 225.836 199.045 226.994C200.064 228.151 201.23 229.092 202.541 229.815C198.243 229.598 194.82 229.49 192.271 229.49H188.338C187.172 229.49 185.679 229.562 183.858 229.707C182.329 229.852 180.399 229.996 178.068 230.141C175.737 230.286 172.933 230.503 169.656 230.792C171.331 228.983 172.642 227.247 173.589 225.583C174.535 223.919 175.3 222.471 175.883 221.241C176.538 219.794 176.975 218.42 177.194 217.117C177.485 215.236 177.704 212.921 177.849 210.171C178.068 207.349 178.214 204.346 178.286 201.163C178.359 197.907 178.359 194.615 178.286 191.286C178.286 187.886 178.214 184.63 178.068 181.518C177.922 178.407 177.704 175.585 177.412 173.053C177.194 170.52 176.903 168.494 176.538 166.975C176.32 166.034 175.883 164.985 175.227 163.828C174.645 162.815 173.844 161.657 172.824 160.355C171.877 158.98 170.602 157.46 169 155.796Z" fill="#BD123C"/>
<path d="M209.533 234.482C210.989 233.469 212.155 232.131 213.029 230.467C213.903 228.803 214.558 227.175 214.995 225.583C215.505 223.701 215.833 221.748 215.979 219.722C215.979 218.492 215.906 216.538 215.76 213.861C215.615 211.618 215.396 208.543 215.105 204.636C214.813 200.656 214.376 195.519 213.794 189.224C212.992 189.297 212.301 189.369 211.718 189.441C211.135 189.441 210.662 189.441 210.298 189.441H209.096C208.732 189.441 208.295 189.477 207.785 189.55C207.348 189.622 206.765 189.731 206.037 189.875C205.381 190.02 204.58 190.201 203.633 190.418C203.779 189.839 203.852 189.26 203.852 188.682C203.924 188.03 203.997 187.452 204.07 186.945C204.143 186.366 204.179 185.824 204.179 185.317V183.689C204.179 183.183 204.179 182.64 204.179 182.061C204.252 181.482 204.325 180.903 204.398 180.325L213.029 180.542C212.665 177.43 212.519 174.645 212.592 172.185C212.665 169.652 212.774 167.482 212.92 165.673C213.138 163.574 213.429 161.729 213.794 160.137C214.303 158.184 214.995 156.375 215.869 154.711C216.743 153.047 217.945 151.636 219.475 150.478C221.004 149.32 222.898 148.452 225.156 147.873C227.414 147.222 230.145 146.896 233.35 146.896C236.992 146.969 239.869 147.439 241.981 148.307C244.093 149.103 245.659 150.152 246.679 151.455C247.698 152.685 248.281 154.096 248.427 155.688C248.572 157.279 248.536 158.835 248.318 160.355C248.172 161.802 247.917 163.14 247.553 164.37C247.261 165.6 247.152 166.505 247.225 167.084C247.298 167.518 247.48 168.097 247.771 168.82C247.99 169.399 248.318 170.122 248.755 170.991C249.264 171.859 249.993 172.836 250.94 173.921C249.774 173.776 248.609 173.668 247.443 173.596C246.278 173.451 245.186 173.342 244.166 173.27C243.001 173.198 241.872 173.161 240.779 173.161C239.687 173.234 238.558 173.306 237.392 173.378C236.373 173.523 235.28 173.668 234.115 173.813C232.949 173.885 231.857 174.102 230.837 174.464C232.294 173.451 233.423 172.402 234.224 171.316C235.025 170.231 235.644 169.254 236.081 168.386C236.591 167.373 236.919 166.36 237.064 165.347C237.137 164.117 237.064 162.742 236.846 161.223C236.7 159.631 236.373 158.184 235.863 156.881C235.353 155.579 234.734 154.53 234.005 153.734C233.277 152.866 232.403 152.54 231.383 152.757C229.854 153.336 228.434 154.747 227.122 156.99C226.03 158.871 224.974 161.729 223.954 165.564C222.934 169.327 222.279 174.572 221.988 181.301C223.371 181.446 224.646 181.555 225.811 181.627C227.05 181.627 228.142 181.663 229.089 181.735C230.182 181.808 231.201 181.844 232.148 181.844C233.095 181.844 234.151 181.808 235.316 181.735C236.336 181.663 237.538 181.627 238.922 181.627C240.306 181.555 241.835 181.446 243.51 181.301L243.292 186.945C241.981 187.09 240.706 187.198 239.468 187.271C238.23 187.343 237.137 187.415 236.19 187.488C235.098 187.56 234.078 187.632 233.131 187.705C232.112 187.777 231.056 187.85 229.963 187.922C229.016 187.994 227.924 188.103 226.685 188.247C225.52 188.392 224.282 188.537 222.971 188.682C223.991 196.858 224.865 203.478 225.593 208.543C226.394 213.536 227.086 217.407 227.669 220.156C228.251 223.412 228.761 225.727 229.198 227.102C229.635 228.26 230.145 229.273 230.728 230.141C231.238 230.937 231.857 231.697 232.585 232.42C233.313 233.144 234.151 233.614 235.098 233.831C232.767 233.469 230.764 233.18 229.089 232.963C227.414 232.818 225.994 232.71 224.828 232.637C223.517 232.565 222.388 232.529 221.441 232.529C220.567 232.601 219.511 232.71 218.273 232.854C216.161 233.071 213.247 233.614 209.533 234.482Z" fill="#BD123C"/>
<path d="M245.586 233.614C246.315 232.529 246.897 231.516 247.334 230.575C247.771 229.635 248.135 228.839 248.427 228.188C248.718 227.392 248.937 226.668 249.082 226.017C249.155 225.583 249.192 224.317 249.192 222.218C249.192 220.12 249.119 217.479 248.973 214.295C248.9 211.112 248.791 207.53 248.645 203.551C248.572 199.571 248.427 195.519 248.208 191.395C248.063 187.271 247.881 183.255 247.662 179.348C247.516 175.441 247.371 171.931 247.225 168.82C247.079 165.636 246.934 163.032 246.788 161.006C246.642 158.98 246.533 157.822 246.46 157.533C246.315 157.099 246.06 156.664 245.695 156.23C244.967 155.362 243.729 154.53 241.981 153.734C245.695 152.793 248.536 152.034 250.503 151.455C251.668 151.165 252.688 150.876 253.562 150.587C254.363 150.297 255.164 150.008 255.965 149.718C256.621 149.429 257.349 149.103 258.15 148.742C258.951 148.307 259.68 147.837 260.335 147.331C259.971 149.429 259.68 151.455 259.461 153.408C259.243 155.362 259.061 157.171 258.915 158.835C258.769 160.716 258.697 162.525 258.697 164.262C258.332 167.807 258.114 171.678 258.041 175.875C258.041 179.999 258.077 184.196 258.15 188.465C258.223 192.733 258.369 196.894 258.587 200.946C258.806 204.998 259.024 208.688 259.243 212.016C259.534 215.272 259.789 218.058 260.008 220.373C260.299 222.616 260.517 224.063 260.663 224.714C260.954 225.8 261.246 226.849 261.537 227.862C261.828 228.73 262.156 229.635 262.52 230.575C262.885 231.588 263.322 232.384 263.831 232.963H253.234C252.287 232.963 251.377 232.999 250.503 233.071C249.701 233.144 248.864 233.216 247.99 233.289C247.116 233.361 246.315 233.469 245.586 233.614Z" fill="#BD123C"/>
<path d="M297.044 181.953C298.938 181.953 300.905 182.314 302.944 183.038C304.983 183.689 306.95 184.557 308.844 185.643C310.737 186.656 312.449 187.777 313.978 189.007C315.581 190.165 316.892 191.286 317.912 192.372C319.732 194.325 320.971 196.966 321.626 200.295C322.354 203.551 322.5 206.915 322.063 210.388C321.626 213.789 320.606 217.009 319.004 220.048C317.402 223.086 315.18 225.329 312.34 226.777C310.3 227.79 308.297 228.585 306.331 229.164C304.364 229.743 302.47 230.177 300.65 230.467C298.829 230.756 297.117 230.901 295.515 230.901C293.912 230.901 292.528 230.865 291.363 230.792C289.178 230.648 286.884 229.888 284.48 228.513C282.149 227.138 279.928 225.438 277.816 223.412C275.776 221.386 274.028 219.179 272.572 216.792C271.115 214.331 270.241 212.016 269.95 209.845C269.513 206.879 269.44 203.768 269.731 200.512C270.022 197.256 271.079 194.253 272.899 191.503C274.793 188.754 277.634 186.475 281.421 184.666C285.281 182.857 290.489 181.953 297.044 181.953ZM293.439 224.063C294.24 224.208 295.333 224.027 296.716 223.521C298.1 222.942 299.448 222.037 300.759 220.807C302.143 219.577 303.344 218.022 304.364 216.14C305.457 214.187 306.112 211.835 306.331 209.086C306.549 206.409 306.549 203.949 306.331 201.706C306.185 199.463 305.857 197.509 305.347 195.845C304.838 194.108 304.255 192.697 303.599 191.612C302.944 190.527 302.252 189.767 301.524 189.333C300.285 188.682 298.792 188.175 297.044 187.813C295.296 187.379 293.803 187.452 292.565 188.03C291.982 188.32 291.254 188.935 290.38 189.875C289.506 190.816 288.632 192.01 287.758 193.457C286.884 194.832 286.083 196.424 285.354 198.232C284.699 200.041 284.225 201.923 283.934 203.876C283.643 205.83 283.57 207.928 283.715 210.171C283.934 212.414 284.407 214.549 285.136 216.575C285.864 218.528 286.884 220.228 288.195 221.676C289.579 223.05 291.327 223.846 293.439 224.063Z" fill="#BD123C"/>
<path d="M326.215 178.588C327.599 178.66 328.837 178.697 329.929 178.697C331.095 178.624 332.078 178.552 332.879 178.48C333.826 178.407 334.664 178.335 335.392 178.262C336.485 178.118 337.613 177.937 338.779 177.72C339.799 177.575 340.855 177.394 341.947 177.177C343.113 176.888 344.241 176.562 345.334 176.2C344.897 177.286 344.533 178.226 344.241 179.022C343.95 179.818 343.732 180.505 343.586 181.084C343.367 181.735 343.258 182.278 343.258 182.712C343.185 183.219 343.149 183.834 343.149 184.557C343.076 185.787 343.076 187.777 343.149 190.527C346.936 187.271 350.105 184.738 352.654 182.929C355.276 181.12 357.352 179.71 358.881 178.697C360.702 177.539 362.122 176.779 363.142 176.417C365.837 175.983 368.204 176.598 370.244 178.262C371.118 178.986 371.955 179.963 372.756 181.193C373.558 182.351 374.25 183.906 374.832 185.86C375.415 187.813 375.852 190.165 376.143 192.914C376.435 195.592 376.471 198.811 376.253 202.574C374.723 202.718 373.339 202.863 372.101 203.008C370.936 203.153 369.952 203.261 369.151 203.334C368.204 203.478 367.33 203.551 366.529 203.551L363.579 203.876C362.56 204.021 361.285 204.166 359.755 204.31C358.299 204.383 356.514 204.527 354.402 204.744C357.461 202.284 359.428 200.15 360.302 198.341C361.248 196.46 361.649 194.904 361.503 193.674C361.358 192.299 360.702 191.105 359.537 190.093C358.153 189.297 356.66 189.007 355.057 189.224C353.674 189.369 352.071 189.984 350.25 191.069C348.429 192.155 346.499 194.181 344.46 197.147C344.606 201.778 344.751 205.613 344.897 208.652C345.115 211.691 345.298 214.151 345.443 216.032C345.662 218.202 345.844 219.903 345.99 221.133C346.208 222.218 346.645 223.376 347.301 224.606C347.81 225.619 348.539 226.74 349.486 227.97C350.432 229.2 351.671 230.431 353.2 231.661C349.995 231.516 347.373 231.516 345.334 231.661C344.096 231.733 343.003 231.805 342.056 231.878C341.037 232.022 339.944 232.167 338.779 232.312C337.759 232.456 336.557 232.601 335.173 232.746C333.862 232.963 332.406 233.18 330.803 233.397C331.386 232.601 331.859 231.661 332.224 230.575C332.588 229.562 332.879 228.585 333.098 227.645C333.389 226.56 333.608 225.438 333.753 224.28C333.826 223.267 333.862 221.748 333.862 219.722C333.935 217.696 333.899 215.417 333.753 212.884C333.68 210.28 333.571 207.602 333.425 204.853C333.28 202.031 333.098 199.39 332.879 196.93C332.661 194.47 332.406 192.336 332.114 190.527C331.896 188.645 331.641 187.343 331.35 186.619C330.985 185.751 330.548 184.883 330.039 184.015C329.602 183.219 329.055 182.387 328.4 181.518C327.744 180.578 327.016 179.601 326.215 178.588Z" fill="#BD123C"/>
<path d="M409.247 213.101C411.286 213.101 413.18 212.884 414.928 212.45C416.385 212.088 417.769 211.51 419.08 210.714C420.463 209.845 421.374 208.579 421.811 206.915C423.268 207.205 424.506 207.458 425.526 207.675C426.545 207.82 427.419 207.964 428.148 208.109C428.949 208.326 429.641 208.471 430.223 208.543C430.806 208.688 431.498 208.833 432.299 208.977C433.028 209.122 433.902 209.303 434.921 209.52C436.014 209.665 437.288 209.882 438.745 210.171C437.653 210.026 436.524 210.135 435.358 210.497C434.266 210.858 433.21 211.256 432.19 211.691C431.025 212.197 429.932 212.812 428.912 213.536C428.257 213.97 427.492 214.621 426.618 215.489C425.817 216.357 424.652 217.19 423.122 217.985C421.592 218.781 419.553 219.469 417.004 220.048C414.527 220.554 411.323 220.735 407.39 220.59C402.655 220.446 398.686 219.613 395.481 218.094C392.276 216.502 389.691 214.585 387.724 212.342C385.758 210.026 384.337 207.53 383.463 204.853C382.589 202.176 382.116 199.68 382.043 197.364C381.97 195.049 382.662 192.625 384.119 190.093C385.575 187.56 387.615 185.245 390.237 183.146C392.932 181.048 396.173 179.348 399.96 178.045C403.748 176.671 407.899 175.983 412.415 175.983C415.037 175.983 417.441 176.309 419.626 176.96C421.884 177.539 423.923 178.335 425.744 179.348C427.638 180.361 429.277 181.518 430.66 182.821C432.044 184.051 433.21 185.317 434.156 186.619C435.103 187.994 435.905 189.441 436.56 190.961C437.143 192.263 437.616 193.746 437.98 195.411C438.345 197.075 438.454 198.775 438.308 200.512C432.773 200.656 428.293 200.765 424.87 200.837C421.52 200.91 418.898 200.946 417.004 200.946H408.373C407.062 200.946 405.35 200.982 403.238 201.054C401.126 201.127 398.54 201.235 395.481 201.38C395.845 204.274 396.756 206.517 398.212 208.109C399.742 209.628 401.344 210.786 403.019 211.582C404.913 212.45 406.989 212.957 409.247 213.101ZM399.414 193.566C401.745 193.71 403.675 193.819 405.204 193.891C406.807 193.964 408.118 194.036 409.138 194.108C410.23 194.181 411.104 194.217 411.76 194.217H414.491C416.312 194.217 419.699 194.108 424.652 193.891C424.433 190.708 423.741 188.284 422.576 186.619C421.483 184.955 420.318 183.725 419.08 182.929C417.623 182.061 416.021 181.555 414.272 181.41C409.538 181.482 406.006 182.459 403.675 184.34C401.417 186.222 399.997 189.297 399.414 193.566Z" fill="#BD123C"/>
<path d="M503.751 192.046C502.876 191.901 501.784 191.793 500.473 191.721C499.235 191.648 498.033 191.612 496.868 191.612C495.557 191.612 494.173 191.648 492.716 191.721C491.186 191.793 489.657 191.865 488.127 191.938C486.816 192.01 485.323 192.118 483.648 192.263C482.046 192.336 480.48 192.444 478.95 192.589C479.533 192.299 480.043 191.901 480.48 191.395C480.99 190.888 481.427 190.382 481.791 189.875C482.155 189.297 482.483 188.682 482.774 188.03C483.138 186.945 483.102 185.643 482.665 184.123C482.228 182.531 481.427 181.084 480.261 179.782C479.169 178.48 477.748 177.467 476 176.743C474.325 175.947 472.468 175.766 470.428 176.2C468.243 176.707 466.277 177.467 464.529 178.48C462.854 179.492 461.433 180.903 460.268 182.712C459.175 184.449 458.374 186.619 457.864 189.224C457.427 191.757 457.318 194.796 457.537 198.341C457.828 202.755 458.556 206.264 459.722 208.869C460.887 211.473 462.307 213.427 463.982 214.729C465.658 216.032 467.479 216.828 469.445 217.117C471.485 217.334 473.487 217.334 475.454 217.117C476.838 216.828 478.113 216.213 479.278 215.272C480.225 214.476 481.099 213.319 481.9 211.799C482.701 210.28 483.065 208.181 482.992 205.504L496.321 204.962C494.792 209.23 492.934 212.631 490.749 215.164C488.564 217.624 486.452 219.541 484.413 220.916C482.009 222.508 479.606 223.593 477.202 224.172C474.216 224.678 471.557 224.895 469.227 224.823C466.896 224.678 464.784 224.317 462.89 223.738C460.996 223.159 459.248 222.435 457.646 221.567C456.043 220.699 454.514 219.758 453.057 218.745C452.11 218.094 451.054 217.009 449.889 215.489C448.724 213.97 447.631 212.161 446.611 210.063C445.592 207.892 444.754 205.504 444.098 202.899C443.443 200.295 443.188 197.617 443.334 194.868C443.479 192.046 444.135 189.224 445.3 186.402C446.466 183.581 448.323 180.867 450.872 178.262C454.732 174.355 458.848 171.823 463.218 170.665C467.661 169.435 471.849 169.11 475.782 169.688C479.715 170.195 483.211 171.316 486.27 173.053C489.329 174.789 491.478 176.671 492.716 178.697C493.954 180.723 494.865 182.278 495.447 183.363C496.103 184.376 496.576 185.172 496.868 185.751C497.232 186.258 497.523 186.656 497.742 186.945C498.033 187.162 498.434 187.488 498.943 187.922C499.308 188.284 499.745 188.682 500.254 189.116C500.691 189.477 501.201 189.912 501.784 190.418C502.367 190.925 503.022 191.467 503.751 192.046Z" fill="#BD123C"/>
<path d="M530.517 213.101C532.557 213.101 534.451 212.884 536.199 212.45C537.655 212.088 539.039 211.51 540.35 210.714C541.734 209.845 542.645 208.579 543.082 206.915C544.538 207.205 545.776 207.458 546.796 207.675C547.816 207.82 548.69 207.964 549.418 208.109C550.219 208.326 550.911 208.471 551.494 208.543C552.077 208.688 552.769 208.833 553.57 208.977C554.298 209.122 555.172 209.303 556.192 209.52C557.284 209.665 558.559 209.882 560.016 210.171C558.923 210.026 557.794 210.135 556.629 210.497C555.536 210.858 554.48 211.256 553.461 211.691C552.295 212.197 551.203 212.812 550.183 213.536C549.527 213.97 548.763 214.621 547.889 215.489C547.087 216.357 545.922 217.19 544.393 217.985C542.863 218.781 540.824 219.469 538.274 220.048C535.798 220.554 532.593 220.735 528.66 220.59C523.926 220.446 519.956 219.613 516.752 218.094C513.547 216.502 510.961 214.585 508.995 212.342C507.028 210.026 505.608 207.53 504.734 204.853C503.86 202.176 503.386 199.68 503.314 197.364C503.241 195.049 503.933 192.625 505.389 190.093C506.846 187.56 508.885 185.245 511.507 183.146C514.202 181.048 517.444 179.348 521.231 178.045C525.018 176.671 529.17 175.983 533.686 175.983C536.308 175.983 538.711 176.309 540.896 176.96C543.154 177.539 545.194 178.335 547.015 179.348C548.908 180.361 550.547 181.518 551.931 182.821C553.315 184.051 554.48 185.317 555.427 186.619C556.374 187.994 557.175 189.441 557.831 190.961C558.413 192.263 558.887 193.746 559.251 195.411C559.615 197.075 559.724 198.775 559.579 200.512C554.043 200.656 549.564 200.765 546.141 200.837C542.79 200.91 540.168 200.946 538.274 200.946H529.643C528.332 200.946 526.621 200.982 524.509 201.054C522.396 201.127 519.811 201.235 516.752 201.38C517.116 204.274 518.026 206.517 519.483 208.109C521.012 209.628 522.615 210.786 524.29 211.582C526.184 212.45 528.26 212.957 530.517 213.101ZM520.685 193.566C523.015 193.71 524.946 193.819 526.475 193.891C528.077 193.964 529.388 194.036 530.408 194.108C531.501 194.181 532.375 194.217 533.03 194.217H535.762C537.582 194.217 540.969 194.108 545.922 193.891C545.704 190.708 545.012 188.284 543.846 186.619C542.754 184.955 541.588 183.725 540.35 182.929C538.893 182.061 537.291 181.555 535.543 181.41C530.809 181.482 527.276 182.459 524.946 184.34C522.688 186.222 521.267 189.297 520.685 193.566Z" fill="#BD123C"/>
<path d="M562.856 178.588C564.24 178.66 565.478 178.697 566.571 178.697C567.736 178.624 568.719 178.552 569.521 178.48C570.468 178.407 571.305 178.335 572.034 178.262C573.126 178.118 574.255 177.937 575.42 177.72C576.44 177.575 577.496 177.394 578.589 177.177C579.754 176.888 580.883 176.562 581.975 176.2C581.538 177.286 581.174 178.226 580.883 179.022C580.592 179.818 580.373 180.505 580.227 181.084C580.009 181.735 579.9 182.278 579.9 182.712C579.827 183.219 579.79 183.834 579.79 184.557C579.718 185.787 579.718 187.777 579.79 190.527C583.578 187.271 586.746 184.738 589.295 182.929C591.918 181.12 593.993 179.71 595.523 178.697C597.344 177.539 598.764 176.779 599.784 176.417C602.479 175.983 604.846 176.598 606.885 178.262C607.759 178.986 608.597 179.963 609.398 181.193C610.199 182.351 610.891 183.906 611.474 185.86C612.056 187.813 612.493 190.165 612.785 192.914C613.076 195.592 613.113 198.811 612.894 202.574C611.365 202.718 609.981 202.863 608.742 203.008C607.577 203.153 606.594 203.261 605.793 203.334C604.846 203.478 603.972 203.551 603.171 203.551L600.221 203.876C599.201 204.021 597.926 204.166 596.397 204.31C594.94 204.383 593.156 204.527 591.043 204.744C594.103 202.284 596.069 200.15 596.943 198.341C597.89 196.46 598.291 194.904 598.145 193.674C597.999 192.299 597.344 191.105 596.178 190.093C594.794 189.297 593.301 189.007 591.699 189.224C590.315 189.369 588.713 189.984 586.892 191.069C585.071 192.155 583.141 194.181 581.101 197.147C581.247 201.778 581.393 205.613 581.538 208.652C581.757 211.691 581.939 214.151 582.085 216.032C582.303 218.202 582.485 219.903 582.631 221.133C582.85 222.218 583.287 223.376 583.942 224.606C584.452 225.619 585.18 226.74 586.127 227.97C587.074 229.2 588.312 230.431 589.842 231.661C586.637 231.516 584.015 231.516 581.975 231.661C580.737 231.733 579.645 231.805 578.698 231.878C577.678 232.022 576.586 232.167 575.42 232.312C574.401 232.456 573.199 232.601 571.815 232.746C570.504 232.963 569.047 233.18 567.445 233.397C568.028 232.601 568.501 231.661 568.865 230.575C569.229 229.562 569.521 228.585 569.739 227.645C570.031 226.56 570.249 225.438 570.395 224.28C570.468 223.267 570.504 221.748 570.504 219.722C570.577 217.696 570.54 215.417 570.395 212.884C570.322 210.28 570.213 207.602 570.067 204.853C569.921 202.031 569.739 199.39 569.521 196.93C569.302 194.47 569.047 192.336 568.756 190.527C568.537 188.645 568.282 187.343 567.991 186.619C567.627 185.751 567.19 184.883 566.68 184.015C566.243 183.219 565.697 182.387 565.041 181.518C564.386 180.578 563.657 179.601 562.856 178.588Z" fill="#BD123C"/>
</svg>
