<svg width="589" height="372" viewBox="0 0 589 372" fill="none" xmlns="http://www.w3.org/2000/svg">
<path d="M59.6672 263.851C40.2246 225.478 14.8745 189.31 6.29116 187.561C4.17545 240.576 12.6383 348.416 63.4154 355.657C76.358 357.503 82.4388 351.768 83.7566 341.434M59.6672 263.851C73.6109 238.421 104.355 187.561 115.779 187.561C130.061 187.561 113.618 312.987 83.7566 341.434M59.6672 263.851C74.561 293.246 85.9882 323.934 83.7566 341.434M59.6672 263.851V139.719M59.6672 139.719C102.368 129.374 111.694 114.72 111.019 108.685V13L83.7566 35.5741M59.6672 139.719C44.2582 136.256 15.8535 124.346 12.6385 102.7M12.6385 102.7C12.2516 100.096 12.2295 97.3504 12.6385 94.4619M12.6385 102.7V94.4619M12.6385 94.4619V13L37.624 33.6887M12.6385 94.4619L61.8288 53.731M61.8288 53.731L37.624 33.6887M61.8288 53.731L83.7566 35.5741M37.624 33.6887L61.8288 13L83.7566 35.5741" stroke="white" stroke-width="12"/>
<path d="M212.321 323.898C211.605 323.778 210.71 323.689 209.636 323.629C208.621 323.57 207.637 323.54 206.682 323.54C205.608 323.54 204.475 323.57 203.281 323.629C202.028 323.689 200.775 323.749 199.523 323.808C198.449 323.868 197.225 323.957 195.853 324.077C194.541 324.136 193.258 324.226 192.005 324.345C192.482 324.107 192.9 323.778 193.258 323.361C193.675 322.943 194.033 322.525 194.332 322.108C194.63 321.63 194.899 321.123 195.137 320.586C195.436 319.691 195.406 318.617 195.048 317.364C194.69 316.051 194.033 314.858 193.079 313.784C192.184 312.71 191.02 311.875 189.588 311.278C188.216 310.622 186.695 310.473 185.024 310.831C183.234 311.248 181.623 311.875 180.191 312.71C178.819 313.545 177.655 314.709 176.701 316.201C175.806 317.633 175.15 319.423 174.732 321.571C174.374 323.659 174.284 326.165 174.463 329.089C174.702 332.728 175.299 335.622 176.253 337.77C177.208 339.918 178.371 341.529 179.744 342.603C181.116 343.677 182.608 344.334 184.219 344.572C185.889 344.751 187.53 344.751 189.141 344.572C190.275 344.334 191.319 343.827 192.273 343.051C193.049 342.395 193.765 341.44 194.421 340.187C195.078 338.934 195.376 337.203 195.316 334.996L206.235 334.548C204.982 338.069 203.46 340.873 201.67 342.961C199.881 344.99 198.15 346.571 196.48 347.705C194.511 349.018 192.542 349.913 190.573 350.39C188.127 350.808 185.949 350.987 184.04 350.927C182.13 350.808 180.4 350.509 178.849 350.032C177.297 349.555 175.866 348.958 174.553 348.242C173.24 347.526 171.987 346.75 170.794 345.915C170.018 345.378 169.153 344.483 168.199 343.23C167.244 341.977 166.349 340.485 165.514 338.755C164.678 336.965 163.992 334.996 163.455 332.848C162.918 330.7 162.709 328.492 162.829 326.225C162.948 323.898 163.485 321.571 164.44 319.244C165.394 316.917 166.916 314.679 169.004 312.531C172.166 309.309 175.537 307.221 179.117 306.266C182.757 305.252 186.187 304.983 189.409 305.46C192.631 305.878 195.495 306.803 198.001 308.235C200.507 309.667 202.267 311.218 203.281 312.889C204.296 314.56 205.041 315.843 205.519 316.738C206.056 317.573 206.444 318.229 206.682 318.707C206.981 319.124 207.219 319.452 207.398 319.691C207.637 319.87 207.965 320.139 208.383 320.497C208.681 320.795 209.039 321.123 209.457 321.481C209.815 321.779 210.232 322.137 210.71 322.555C211.187 322.973 211.724 323.42 212.321 323.898Z" fill="white"/>
<path d="M234.963 315.574C236.515 315.574 238.125 315.872 239.796 316.469C241.467 317.006 243.078 317.722 244.629 318.617C246.18 319.452 247.582 320.377 248.835 321.392C250.148 322.346 251.222 323.271 252.057 324.166C253.549 325.777 254.563 327.955 255.1 330.7C255.697 333.385 255.816 336.159 255.458 339.023C255.1 341.828 254.265 344.483 252.952 346.989C251.64 349.495 249.82 351.345 247.493 352.538C245.822 353.373 244.181 354.03 242.571 354.507C240.96 354.984 239.408 355.342 237.917 355.581C236.425 355.82 235.023 355.939 233.71 355.939C232.398 355.939 231.264 355.909 230.309 355.85C228.52 355.73 226.64 355.104 224.671 353.97C222.762 352.836 220.942 351.434 219.212 349.763C217.541 348.093 216.109 346.273 214.916 344.304C213.723 342.275 213.007 340.366 212.768 338.576C212.41 336.129 212.35 333.564 212.589 330.879C212.828 328.194 213.693 325.718 215.184 323.45C216.736 321.183 219.063 319.303 222.165 317.812C225.327 316.32 229.593 315.574 234.963 315.574ZM232.01 350.3C232.666 350.42 233.561 350.271 234.695 349.853C235.828 349.376 236.932 348.63 238.006 347.615C239.14 346.601 240.124 345.318 240.96 343.767C241.855 342.156 242.392 340.217 242.571 337.949C242.75 335.742 242.75 333.713 242.571 331.863C242.451 330.014 242.183 328.403 241.765 327.03C241.347 325.598 240.87 324.435 240.333 323.54C239.796 322.645 239.229 322.018 238.633 321.66C237.618 321.123 236.395 320.705 234.963 320.407C233.531 320.049 232.308 320.109 231.294 320.586C230.817 320.825 230.22 321.332 229.504 322.108C228.788 322.883 228.072 323.868 227.356 325.061C226.64 326.195 225.984 327.508 225.387 328.999C224.85 330.491 224.462 332.042 224.224 333.653C223.985 335.264 223.925 336.995 224.045 338.844C224.224 340.694 224.611 342.454 225.208 344.125C225.805 345.736 226.64 347.138 227.714 348.331C228.848 349.465 230.28 350.121 232.01 350.3Z" fill="white"/>
<path d="M262.528 345.825C262.946 343.856 263.244 342.126 263.423 340.634C263.662 339.083 263.841 337.8 263.96 336.786C264.08 335.592 264.139 334.578 264.139 333.743C264.08 332.728 264.02 331.535 263.96 330.163C263.96 328.731 263.901 327.329 263.781 325.956C263.722 324.524 263.632 323.271 263.513 322.197C263.393 321.063 263.244 320.258 263.065 319.781C262.827 319.303 262.498 318.796 262.081 318.259C261.246 317.245 260.022 316.26 258.411 315.306C259.784 315.007 260.947 314.769 261.902 314.59C262.916 314.351 263.751 314.142 264.408 313.963C265.124 313.724 265.75 313.516 266.287 313.337C266.764 313.158 267.331 312.979 267.988 312.8C268.525 312.68 269.181 312.531 269.957 312.352C270.732 312.173 271.627 311.964 272.641 311.726L272.373 319.87C274.282 317.603 276.221 315.902 278.19 314.769C280.159 313.635 282.009 312.829 283.739 312.352C285.708 311.755 287.647 311.457 289.556 311.457C291.943 311.576 294.151 311.964 296.179 312.621C298.267 313.277 300.057 314.053 301.549 314.948C303.1 315.783 304.353 316.678 305.308 317.633C306.262 318.587 306.829 319.423 307.008 320.139C307.724 322.466 307.903 324.614 307.545 326.583C307.187 328.492 306.71 330.372 306.113 332.221C305.576 334.011 305.099 335.801 304.681 337.591C304.323 339.381 304.472 341.321 305.129 343.409C305.367 343.946 305.606 344.483 305.845 345.02C306.083 345.497 306.382 345.975 306.74 346.452C307.098 346.929 307.515 347.317 307.993 347.615C307.336 347.556 306.68 347.526 306.024 347.526C305.367 347.466 304.771 347.407 304.234 347.347C303.578 347.287 302.981 347.228 302.444 347.168C301.847 347.108 301.042 347.078 300.027 347.078C298.297 347.078 295.612 347.168 291.973 347.347C292.51 346.094 292.927 345.05 293.226 344.214C293.584 343.319 293.882 342.603 294.121 342.066C294.359 341.41 294.538 340.903 294.658 340.545C295.374 338.815 295.791 336.845 295.911 334.638C296.09 332.43 295.94 330.193 295.463 327.925C295.284 327.15 294.986 326.225 294.568 325.151C294.151 324.077 293.584 323.032 292.868 322.018C292.211 321.004 291.406 320.139 290.451 319.423C289.556 318.707 288.512 318.289 287.319 318.17C286.126 318.05 284.783 318.349 283.292 319.065C281.86 319.781 280.308 321.093 278.638 323.003C277.385 324.614 276.4 326.583 275.684 328.91C275.028 330.879 274.581 333.355 274.342 336.338C274.103 339.262 274.461 342.693 275.416 346.631C274.581 346.512 273.805 346.452 273.089 346.452C272.373 346.392 271.776 346.333 271.299 346.273C270.702 346.213 270.165 346.154 269.688 346.094C269.151 346.094 268.554 346.064 267.898 346.004C267.301 346.004 266.556 346.004 265.661 346.004C264.766 345.945 263.722 345.885 262.528 345.825Z" fill="white"/>
<path d="M312.378 299.285C314.168 299.464 315.66 299.613 316.853 299.732C318.106 299.852 319.12 299.941 319.896 300.001C320.791 300.061 321.507 300.09 322.044 300.09C322.581 300.15 323.297 300.15 324.192 300.09C324.967 300.031 325.982 299.971 327.235 299.911C328.487 299.792 330.069 299.613 331.978 299.374C331.56 299.971 331.232 300.508 330.993 300.985C330.755 301.403 330.546 301.791 330.367 302.149L329.83 303.223C329.711 303.581 329.591 303.939 329.472 304.297C329.353 304.595 329.233 304.953 329.114 305.371C329.054 305.789 328.995 306.236 328.935 306.713H342.717L341.465 313.963L328.845 313.247C328.547 316.29 328.338 318.647 328.219 320.318C328.1 321.988 327.98 323.211 327.861 323.987L327.682 325.598C327.503 327.866 327.324 330.342 327.145 333.027C326.966 335.652 326.906 338.098 326.966 340.366C327.026 342.633 327.235 344.543 327.593 346.094C327.951 347.586 328.577 348.331 329.472 348.331C330.367 348.331 331.202 348.093 331.978 347.615C332.753 347.138 333.41 346.571 333.947 345.915C334.543 345.259 334.991 344.602 335.289 343.946C335.588 343.23 335.737 342.693 335.737 342.335C335.737 341.977 335.647 341.559 335.468 341.082C335.17 340.187 334.633 339.053 333.857 337.681C335.588 338.098 337.109 338.516 338.422 338.934C339.078 339.173 339.675 339.411 340.212 339.65C340.808 339.889 341.494 340.157 342.27 340.455C342.926 340.754 343.762 341.112 344.776 341.529C345.79 341.947 346.983 342.454 348.356 343.051C347.043 343.29 346.089 343.677 345.492 344.214C345.134 344.453 344.865 344.722 344.686 345.02C344.269 345.676 343.791 346.571 343.254 347.705C342.717 348.779 341.912 349.853 340.838 350.927C339.764 352.001 338.302 352.956 336.453 353.791C334.663 354.626 332.246 355.104 329.203 355.223C326.041 355.342 323.625 354.805 321.954 353.612C320.343 352.419 319.15 351.046 318.374 349.495C317.658 347.884 317.241 346.303 317.121 344.751C317.002 343.2 316.913 342.156 316.853 341.619C316.793 341.082 316.793 339.739 316.853 337.591C316.913 335.443 317.002 333.086 317.121 330.521C317.241 327.895 317.36 325.389 317.479 323.003C317.599 320.556 317.658 318.766 317.658 317.633C317.658 317.036 317.688 316.409 317.748 315.753C317.748 315.216 317.748 314.649 317.748 314.053C317.808 313.396 317.837 312.77 317.837 312.173L304.86 312.084L304.323 306.982L317.39 307.34C317.271 306.684 317.121 306.087 316.942 305.55C316.823 304.953 316.704 304.476 316.584 304.118C316.405 303.7 316.226 303.342 316.047 303.044C315.809 302.746 315.54 302.417 315.242 302.059C314.944 301.761 314.556 301.373 314.078 300.896C313.601 300.419 313.034 299.882 312.378 299.285Z" fill="white"/>
<path d="M344.686 315.664L361.154 315.843C360.199 319.482 359.483 322.585 359.006 325.151C358.588 327.716 358.32 329.864 358.2 331.595C357.962 333.564 357.902 335.234 358.021 336.607C358.2 337.86 358.499 339.202 358.916 340.634C359.274 341.828 359.811 343.2 360.527 344.751C361.243 346.303 362.198 347.854 363.391 349.405C362.675 349.167 361.9 348.988 361.064 348.868C360.229 348.749 359.453 348.66 358.737 348.6C357.902 348.54 357.067 348.54 356.232 348.6C355.396 348.66 354.471 348.749 353.457 348.868C352.622 348.988 351.607 349.137 350.414 349.316C349.221 349.495 347.968 349.734 346.655 350.032C347.55 347.347 348.236 345.02 348.714 343.051C349.251 341.082 349.639 339.441 349.877 338.128C350.116 336.577 350.265 335.324 350.325 334.369C350.325 333.176 350.325 331.833 350.325 330.342C350.325 328.79 350.325 327.299 350.325 325.867C350.325 324.435 350.295 323.182 350.235 322.108C350.176 320.974 350.056 320.258 349.877 319.96L348.982 319.065C348.624 318.766 348.087 318.349 347.371 317.812C346.715 317.215 345.82 316.499 344.686 315.664ZM351.041 301.88C352.294 301.224 353.547 301.045 354.8 301.343C356.112 301.642 357.126 302.209 357.842 303.044C358.558 303.879 358.797 304.864 358.558 305.997C358.379 307.131 357.425 308.235 355.695 309.309C353.964 310.323 352.443 310.681 351.13 310.383C349.818 310.085 348.893 309.458 348.356 308.503C347.819 307.549 347.729 306.445 348.087 305.192C348.445 303.879 349.43 302.775 351.041 301.88Z" fill="white"/>
<path d="M408.856 317.722C408.677 316.529 408.527 315.544 408.408 314.769C408.289 313.933 408.17 313.277 408.05 312.8C407.931 312.203 407.841 311.755 407.782 311.457C407.662 311.159 407.513 310.831 407.334 310.473C407.215 310.174 407.006 309.816 406.708 309.398C406.469 308.981 406.171 308.503 405.813 307.966C406.588 308.205 407.364 308.354 408.14 308.414C408.975 308.474 409.751 308.533 410.467 308.593C411.242 308.653 412.048 308.653 412.883 308.593C413.718 308.593 414.673 308.563 415.747 308.503C416.702 308.444 417.835 308.414 419.148 308.414C420.52 308.354 422.071 308.265 423.802 308.145C422.787 308.384 421.922 308.802 421.206 309.398C420.55 309.936 419.983 310.532 419.506 311.189C418.969 311.905 418.521 312.68 418.163 313.516C417.865 314.291 417.686 315.783 417.626 317.991C417.567 320.139 417.567 322.704 417.626 325.688C417.686 328.611 417.746 331.774 417.805 335.175C417.925 338.576 417.984 341.828 417.984 344.93C418.044 348.033 418.044 350.867 417.984 353.433C417.925 355.939 417.775 357.789 417.537 358.982C416.702 362.741 415.15 365.784 412.883 368.111C410.616 370.498 407.633 371.781 403.933 371.96C399.458 372.139 395.908 371.721 393.283 370.707C390.718 369.692 388.719 368.439 387.287 366.948C385.855 365.516 384.781 364.054 384.065 362.562C383.349 361.07 382.603 359.937 381.828 359.161C381.112 358.505 380.396 357.878 379.68 357.282C379.023 356.804 378.337 356.327 377.621 355.85C376.965 355.372 376.309 355.074 375.652 354.955C377.383 355.014 378.934 355.044 380.306 355.044C381.678 355.044 382.842 355.044 383.797 355.044C384.87 355.044 385.825 355.014 386.66 354.955H397.669C396.475 355.313 395.58 355.7 394.984 356.118C394.387 356.595 393.969 357.073 393.731 357.55C393.492 358.087 393.373 358.624 393.373 359.161C393.611 360.593 394.387 361.637 395.7 362.294C397.012 362.95 398.802 363.338 401.069 363.457C403.277 363.576 404.798 363.517 405.634 363.278C406.469 363.099 407.125 362.741 407.603 362.204C408.557 360.772 409.363 358.922 410.019 356.655C410.496 354.746 410.825 352.27 411.004 349.226C411.242 346.124 410.974 342.335 410.198 337.86C408.289 340.485 406.081 342.454 403.575 343.767C401.069 345.08 398.683 346.034 396.416 346.631C393.731 347.287 391.016 347.615 388.271 347.615C381.052 347.317 375.652 345.646 372.072 342.603C368.493 339.56 366.852 335.473 367.15 330.342C367.329 327.776 368.105 325.21 369.477 322.645C370.909 320.079 372.759 317.782 375.026 315.753C377.353 313.724 380.008 312.113 382.991 310.92C385.974 309.727 389.077 309.219 392.299 309.398C394.745 309.637 397.042 310.085 399.19 310.741C401.04 311.338 402.859 312.173 404.649 313.247C406.499 314.321 407.901 315.813 408.856 317.722ZM380.396 326.672C380.038 328.999 380.187 331.177 380.843 333.206C381.559 335.234 382.544 336.995 383.797 338.486C385.049 339.918 386.452 341.052 388.003 341.887C389.554 342.663 391.016 343.021 392.388 342.961C395.252 342.902 397.728 341.619 399.816 339.113C401.905 336.547 403.158 332.728 403.575 327.657C403.754 325.151 403.426 323.003 402.591 321.213C401.815 319.363 400.831 317.871 399.637 316.738C398.444 315.604 397.191 314.798 395.879 314.321C394.566 313.844 393.522 313.635 392.746 313.695C391.672 313.814 390.479 314.142 389.166 314.679C387.913 315.156 386.69 315.902 385.497 316.917C384.304 317.871 383.23 319.154 382.275 320.765C381.38 322.376 380.754 324.345 380.396 326.672Z" fill="white"/>
<path d="M448.592 315.574C450.144 315.574 451.754 315.872 453.425 316.469C455.096 317.006 456.707 317.722 458.258 318.617C459.809 319.452 461.211 320.377 462.464 321.392C463.777 322.346 464.851 323.271 465.686 324.166C467.178 325.777 468.192 327.955 468.729 330.7C469.326 333.385 469.445 336.159 469.087 339.023C468.729 341.828 467.894 344.483 466.581 346.989C465.268 349.495 463.449 351.345 461.122 352.538C459.451 353.373 457.81 354.03 456.199 354.507C454.589 354.984 453.037 355.342 451.546 355.581C450.054 355.82 448.652 355.939 447.339 355.939C446.027 355.939 444.893 355.909 443.938 355.85C442.148 355.73 440.269 355.104 438.3 353.97C436.391 352.836 434.571 351.434 432.841 349.763C431.17 348.093 429.738 346.273 428.545 344.304C427.352 342.275 426.636 340.366 426.397 338.576C426.039 336.129 425.979 333.564 426.218 330.879C426.457 328.194 427.322 325.718 428.813 323.45C430.365 321.183 432.692 319.303 435.794 317.812C438.956 316.32 443.222 315.574 448.592 315.574ZM445.639 350.3C446.295 350.42 447.19 350.271 448.324 349.853C449.457 349.376 450.561 348.63 451.635 347.615C452.769 346.601 453.753 345.318 454.589 343.767C455.484 342.156 456.02 340.217 456.199 337.949C456.378 335.742 456.378 333.713 456.199 331.863C456.08 330.014 455.812 328.403 455.394 327.03C454.976 325.598 454.499 324.435 453.962 323.54C453.425 322.645 452.858 322.018 452.262 321.66C451.247 321.123 450.024 320.705 448.592 320.407C447.16 320.049 445.937 320.109 444.923 320.586C444.446 320.825 443.849 321.332 443.133 322.108C442.417 322.883 441.701 323.868 440.985 325.061C440.269 326.195 439.613 327.508 439.016 328.999C438.479 330.491 438.091 332.042 437.853 333.653C437.614 335.264 437.554 336.995 437.674 338.844C437.853 340.694 438.24 342.454 438.837 344.125C439.434 345.736 440.269 347.138 441.343 348.331C442.477 349.465 443.909 350.121 445.639 350.3Z" fill="white"/>
<path d="M162 195.615C164.381 195.896 166.378 196.106 167.989 196.246C169.669 196.316 171.035 196.421 172.086 196.561C173.347 196.701 174.327 196.771 175.028 196.771C175.798 196.841 176.954 196.806 178.495 196.666C179.825 196.526 181.611 196.351 183.853 196.141C186.164 195.931 189.106 195.615 192.678 195.195C191.067 196.596 189.771 197.962 188.791 199.293C187.88 200.554 187.18 201.674 186.689 202.655C186.059 203.846 185.674 204.966 185.534 206.017C185.254 207.698 185.008 210.01 184.798 212.951C184.658 215.823 184.518 218.975 184.378 222.407C184.238 225.84 184.168 229.377 184.168 233.019C184.168 236.661 184.203 240.129 184.273 243.421C184.413 246.643 184.623 249.515 184.903 252.036C185.254 254.558 185.674 256.379 186.164 257.5C186.865 258.76 187.6 260.021 188.37 261.282C189.071 262.333 189.911 263.418 190.892 264.539C191.872 265.66 192.993 266.57 194.254 267.271C190.121 267.061 186.83 266.956 184.378 266.956H180.596C179.475 266.956 178.039 267.026 176.288 267.166C174.818 267.306 172.961 267.446 170.72 267.586C168.479 267.726 165.782 267.936 162.63 268.216C164.241 266.465 165.502 264.784 166.413 263.173C167.323 261.562 168.059 260.161 168.619 258.971C169.249 257.57 169.669 256.239 169.88 254.978C170.16 253.157 170.37 250.915 170.51 248.254C170.72 245.522 170.86 242.615 170.93 239.533C171 236.381 171 233.194 170.93 229.972C170.93 226.68 170.86 223.528 170.72 220.516C170.58 217.504 170.37 214.773 170.09 212.321C169.88 209.869 169.599 207.908 169.249 206.437C169.039 205.527 168.619 204.511 167.989 203.39C167.428 202.41 166.658 201.289 165.677 200.028C164.767 198.697 163.541 197.226 162 195.615Z" fill="white"/>
<path d="M200.978 271.789C202.379 270.808 203.499 269.512 204.34 267.901C205.18 266.29 205.811 264.714 206.231 263.173C206.721 261.352 207.036 259.461 207.176 257.5C207.176 256.309 207.106 254.418 206.966 251.826C206.826 249.655 206.616 246.678 206.336 242.895C206.056 239.043 205.636 234.07 205.075 227.976C204.305 228.046 203.639 228.116 203.079 228.186C202.519 228.186 202.063 228.186 201.713 228.186H200.558C200.207 228.186 199.787 228.221 199.297 228.291C198.877 228.361 198.316 228.466 197.616 228.606C196.985 228.746 196.215 228.922 195.305 229.132C195.445 228.571 195.515 228.011 195.515 227.451C195.585 226.82 195.655 226.26 195.725 225.77C195.795 225.209 195.83 224.684 195.83 224.194V222.618C195.83 222.127 195.83 221.602 195.83 221.042C195.9 220.481 195.97 219.921 196.04 219.36L204.34 219.571C203.99 216.559 203.85 213.862 203.92 211.48C203.99 209.029 204.095 206.928 204.235 205.176C204.445 203.145 204.725 201.359 205.075 199.818C205.566 197.927 206.231 196.176 207.071 194.565C207.912 192.954 209.068 191.588 210.538 190.467C212.009 189.346 213.83 188.506 216.002 187.946C218.173 187.315 220.799 187 223.881 187C227.383 187.07 230.15 187.525 232.181 188.366C234.212 189.136 235.718 190.152 236.699 191.413C237.679 192.604 238.24 193.969 238.38 195.51C238.52 197.051 238.485 198.557 238.275 200.028C238.135 201.429 237.889 202.725 237.539 203.916C237.259 205.106 237.154 205.982 237.224 206.542C237.294 206.963 237.469 207.523 237.749 208.223C237.959 208.784 238.275 209.484 238.695 210.325C239.185 211.165 239.886 212.111 240.796 213.162C239.675 213.021 238.555 212.916 237.434 212.846C236.314 212.706 235.263 212.601 234.282 212.531C233.162 212.461 232.076 212.426 231.025 212.426C229.975 212.496 228.889 212.566 227.769 212.636C226.788 212.776 225.737 212.916 224.617 213.056C223.496 213.127 222.445 213.337 221.465 213.687C222.866 212.706 223.951 211.691 224.722 210.64C225.492 209.589 226.088 208.644 226.508 207.803C226.998 206.823 227.313 205.842 227.453 204.861C227.523 203.671 227.453 202.34 227.243 200.869C227.103 199.328 226.788 197.927 226.298 196.666C225.807 195.405 225.212 194.39 224.512 193.619C223.811 192.779 222.971 192.463 221.99 192.674C220.519 193.234 219.153 194.6 217.893 196.771C216.842 198.592 215.827 201.359 214.846 205.071C213.865 208.714 213.235 213.792 212.955 220.306C214.286 220.446 215.511 220.551 216.632 220.621C217.823 220.621 218.873 220.656 219.784 220.726C220.834 220.796 221.815 220.831 222.726 220.831C223.636 220.831 224.652 220.796 225.772 220.726C226.753 220.656 227.909 220.621 229.239 220.621C230.57 220.551 232.041 220.446 233.652 220.306L233.442 225.77C232.181 225.91 230.955 226.015 229.765 226.085C228.574 226.155 227.523 226.225 226.613 226.295C225.562 226.365 224.582 226.435 223.671 226.505C222.691 226.575 221.675 226.645 220.624 226.715C219.714 226.785 218.663 226.89 217.472 227.03C216.352 227.17 215.161 227.31 213.9 227.451C214.881 235.366 215.721 241.775 216.422 246.678C217.192 251.511 217.858 255.258 218.418 257.92C218.978 261.072 219.469 263.313 219.889 264.644C220.309 265.765 220.799 266.745 221.36 267.586C221.85 268.356 222.445 269.092 223.146 269.792C223.846 270.493 224.652 270.948 225.562 271.158C223.321 270.808 221.395 270.528 219.784 270.318C218.173 270.178 216.807 270.073 215.686 270.002C214.426 269.932 213.34 269.897 212.43 269.897C211.589 269.967 210.573 270.073 209.383 270.213C207.352 270.423 204.55 270.948 200.978 271.789Z" fill="white"/>
<path d="M235.648 270.948C236.349 269.897 236.909 268.917 237.329 268.006C237.749 267.096 238.1 266.325 238.38 265.695C238.66 264.924 238.87 264.224 239.01 263.593C239.08 263.173 239.115 261.947 239.115 259.916C239.115 257.885 239.045 255.328 238.905 252.246C238.835 249.164 238.73 245.697 238.59 241.845C238.52 237.992 238.38 234.07 238.17 230.077C238.03 226.085 237.854 222.197 237.644 218.415C237.504 214.632 237.364 211.235 237.224 208.223C237.084 205.141 236.944 202.62 236.804 200.659C236.664 198.697 236.559 197.577 236.489 197.297C236.349 196.876 236.103 196.456 235.753 196.036C235.053 195.195 233.862 194.39 232.181 193.619C235.753 192.709 238.485 191.973 240.376 191.413C241.497 191.133 242.477 190.852 243.318 190.572C244.088 190.292 244.859 190.012 245.629 189.732C246.259 189.452 246.96 189.136 247.73 188.786C248.501 188.366 249.201 187.911 249.831 187.42C249.481 189.452 249.201 191.413 248.991 193.304C248.781 195.195 248.606 196.946 248.466 198.557C248.326 200.378 248.256 202.13 248.256 203.811C247.905 207.243 247.695 210.99 247.625 215.053C247.625 219.045 247.66 223.108 247.73 227.24C247.8 231.373 247.94 235.401 248.15 239.323C248.361 243.246 248.571 246.818 248.781 250.04C249.061 253.192 249.306 255.889 249.516 258.13C249.796 260.301 250.007 261.702 250.147 262.333C250.427 263.383 250.707 264.399 250.987 265.38C251.267 266.22 251.582 267.096 251.933 268.006C252.283 268.987 252.703 269.757 253.193 270.318H243.002C242.092 270.318 241.216 270.353 240.376 270.423C239.605 270.493 238.8 270.563 237.959 270.633C237.119 270.703 236.349 270.808 235.648 270.948Z" fill="white"/>
<path d="M285.132 220.936C286.953 220.936 288.844 221.287 290.805 221.987C292.767 222.618 294.658 223.458 296.479 224.509C298.3 225.489 299.946 226.575 301.417 227.766C302.958 228.886 304.218 229.972 305.199 231.023C306.95 232.914 308.141 235.471 308.771 238.693C309.471 241.845 309.611 245.102 309.191 248.464C308.771 251.756 307.79 254.873 306.249 257.815C304.709 260.757 302.572 262.928 299.841 264.329C297.88 265.31 295.953 266.08 294.062 266.64C292.171 267.201 290.35 267.621 288.599 267.901C286.848 268.181 285.202 268.321 283.661 268.321C282.12 268.321 280.79 268.286 279.669 268.216C277.568 268.076 275.361 267.341 273.05 266.01C270.809 264.679 268.672 263.033 266.641 261.072C264.68 259.111 262.999 256.974 261.598 254.663C260.197 252.281 259.357 250.04 259.077 247.939C258.657 245.067 258.587 242.055 258.867 238.903C259.147 235.751 260.162 232.844 261.913 230.182C263.735 227.521 266.466 225.314 270.108 223.563C273.82 221.812 278.828 220.936 285.132 220.936ZM281.665 261.702C282.436 261.842 283.486 261.667 284.817 261.177C286.148 260.617 287.443 259.741 288.704 258.55C290.035 257.359 291.191 255.854 292.171 254.032C293.222 252.141 293.852 249.865 294.062 247.203C294.272 244.611 294.272 242.23 294.062 240.059C293.922 237.887 293.607 235.996 293.117 234.385C292.626 232.704 292.066 231.338 291.436 230.287C290.805 229.237 290.14 228.501 289.44 228.081C288.249 227.451 286.813 226.96 285.132 226.61C283.451 226.19 282.015 226.26 280.825 226.82C280.264 227.1 279.564 227.696 278.723 228.606C277.883 229.517 277.042 230.673 276.202 232.073C275.361 233.404 274.591 234.945 273.891 236.696C273.26 238.448 272.805 240.269 272.525 242.16C272.245 244.051 272.175 246.082 272.315 248.254C272.525 250.425 272.98 252.491 273.68 254.453C274.381 256.344 275.361 257.99 276.622 259.391C277.953 260.722 279.634 261.492 281.665 261.702Z" fill="white"/>
<path d="M313.184 217.679C314.514 217.749 315.705 217.784 316.756 217.784C317.876 217.714 318.822 217.644 319.592 217.574C320.503 217.504 321.308 217.434 322.009 217.364C323.059 217.224 324.145 217.049 325.266 216.839C326.246 216.699 327.262 216.524 328.312 216.314C329.433 216.033 330.519 215.718 331.569 215.368C331.149 216.419 330.799 217.329 330.519 218.1C330.239 218.87 330.028 219.536 329.888 220.096C329.678 220.726 329.573 221.252 329.573 221.672C329.503 222.162 329.468 222.758 329.468 223.458C329.398 224.649 329.398 226.575 329.468 229.237C333.11 226.085 336.157 223.633 338.608 221.882C341.13 220.131 343.126 218.765 344.597 217.784C346.348 216.664 347.714 215.928 348.694 215.578C351.286 215.158 353.562 215.753 355.523 217.364C356.364 218.065 357.169 219.01 357.94 220.201C358.71 221.322 359.376 222.828 359.936 224.719C360.496 226.61 360.916 228.886 361.197 231.548C361.477 234.14 361.512 237.257 361.302 240.899C359.831 241.039 358.5 241.179 357.309 241.319C356.189 241.459 355.243 241.564 354.473 241.635C353.562 241.775 352.722 241.845 351.951 241.845L349.115 242.16C348.134 242.3 346.908 242.44 345.437 242.58C344.037 242.65 342.321 242.79 340.289 243C343.231 240.619 345.122 238.553 345.963 236.801C346.873 234.98 347.258 233.474 347.118 232.284C346.978 230.953 346.348 229.797 345.227 228.816C343.896 228.046 342.461 227.766 340.92 227.976C339.589 228.116 338.048 228.711 336.297 229.762C334.546 230.813 332.69 232.774 330.729 235.646C330.869 240.129 331.009 243.841 331.149 246.783C331.359 249.725 331.534 252.106 331.674 253.927C331.884 256.029 332.06 257.675 332.2 258.865C332.41 259.916 332.83 261.037 333.46 262.228C333.951 263.208 334.651 264.294 335.562 265.485C336.472 266.675 337.663 267.866 339.134 269.057C336.052 268.917 333.53 268.917 331.569 269.057C330.379 269.127 329.328 269.197 328.417 269.267C327.437 269.407 326.386 269.547 325.266 269.687C324.285 269.827 323.129 269.967 321.799 270.108C320.538 270.318 319.137 270.528 317.596 270.738C318.156 269.967 318.612 269.057 318.962 268.006C319.312 267.026 319.592 266.08 319.802 265.169C320.083 264.119 320.293 263.033 320.433 261.912C320.503 260.932 320.538 259.461 320.538 257.5C320.608 255.538 320.573 253.332 320.433 250.88C320.363 248.359 320.258 245.767 320.118 243.105C319.977 240.374 319.802 237.817 319.592 235.436C319.382 233.054 319.137 230.988 318.857 229.237C318.647 227.416 318.402 226.155 318.121 225.454C317.771 224.614 317.351 223.773 316.861 222.933C316.44 222.162 315.915 221.357 315.285 220.516C314.654 219.606 313.954 218.66 313.184 217.679Z" fill="white"/>
<path d="M393.03 251.091C394.991 251.091 396.812 250.88 398.493 250.46C399.894 250.11 401.225 249.55 402.486 248.779C403.817 247.939 404.692 246.713 405.112 245.102C406.513 245.382 407.704 245.627 408.684 245.837C409.665 245.977 410.506 246.117 411.206 246.257C411.976 246.468 412.642 246.608 413.202 246.678C413.762 246.818 414.428 246.958 415.198 247.098C415.899 247.238 416.739 247.413 417.72 247.623C418.77 247.763 419.996 247.974 421.397 248.254C420.346 248.114 419.261 248.219 418.14 248.569C417.089 248.919 416.074 249.304 415.093 249.725C413.973 250.215 412.922 250.81 411.941 251.511C411.311 251.931 410.576 252.561 409.735 253.402C408.965 254.243 407.844 255.048 406.373 255.819C404.902 256.589 402.941 257.254 400.49 257.815C398.108 258.305 395.026 258.48 391.244 258.34C386.692 258.2 382.874 257.395 379.793 255.924C376.711 254.383 374.224 252.526 372.333 250.355C370.442 248.114 369.076 245.697 368.236 243.105C367.395 240.514 366.94 238.097 366.87 235.856C366.8 233.614 367.465 231.268 368.866 228.816C370.267 226.365 372.228 224.123 374.75 222.092C377.341 220.061 380.458 218.415 384.1 217.154C387.742 215.823 391.735 215.158 396.077 215.158C398.599 215.158 400.91 215.473 403.011 216.103C405.182 216.664 407.144 217.434 408.895 218.415C410.716 219.395 412.292 220.516 413.622 221.777C414.953 222.968 416.074 224.194 416.984 225.454C417.895 226.785 418.665 228.186 419.296 229.657C419.856 230.918 420.311 232.354 420.661 233.965C421.012 235.576 421.117 237.222 420.977 238.903C415.654 239.043 411.346 239.148 408.054 239.218C404.832 239.288 402.311 239.323 400.49 239.323H392.19C390.929 239.323 389.283 239.358 387.252 239.428C385.221 239.498 382.734 239.603 379.793 239.743C380.143 242.545 381.018 244.716 382.419 246.257C383.89 247.728 385.431 248.849 387.042 249.62C388.863 250.46 390.859 250.95 393.03 251.091ZM383.575 232.179C385.816 232.319 387.672 232.424 389.143 232.494C390.684 232.564 391.945 232.634 392.925 232.704C393.976 232.774 394.816 232.809 395.447 232.809H398.073C399.824 232.809 403.081 232.704 407.844 232.494C407.634 229.412 406.968 227.065 405.848 225.454C404.797 223.843 403.676 222.653 402.486 221.882C401.085 221.042 399.544 220.551 397.863 220.411C393.31 220.481 389.913 221.427 387.672 223.248C385.501 225.069 384.135 228.046 383.575 232.179Z" fill="white"/>
<path d="M483.908 230.708C483.068 230.568 482.017 230.462 480.757 230.392C479.566 230.322 478.41 230.287 477.29 230.287C476.029 230.287 474.698 230.322 473.297 230.392C471.826 230.462 470.356 230.533 468.885 230.603C467.624 230.673 466.188 230.778 464.577 230.918C463.036 230.988 461.53 231.093 460.06 231.233C460.62 230.953 461.11 230.568 461.53 230.077C462.021 229.587 462.441 229.097 462.791 228.606C463.141 228.046 463.457 227.451 463.737 226.82C464.087 225.77 464.052 224.509 463.632 223.038C463.211 221.497 462.441 220.096 461.32 218.835C460.27 217.574 458.904 216.594 457.223 215.893C455.612 215.123 453.826 214.948 451.865 215.368C449.763 215.858 447.872 216.594 446.191 217.574C444.58 218.555 443.215 219.921 442.094 221.672C441.043 223.353 440.273 225.454 439.783 227.976C439.362 230.427 439.257 233.369 439.467 236.801C439.748 241.074 440.448 244.471 441.569 246.993C442.689 249.515 444.055 251.406 445.666 252.667C447.277 253.927 449.028 254.698 450.919 254.978C452.88 255.188 454.806 255.188 456.698 254.978C458.028 254.698 459.254 254.102 460.375 253.192C461.285 252.421 462.126 251.301 462.896 249.83C463.667 248.359 464.017 246.328 463.947 243.736L476.764 243.211C475.293 247.343 473.507 250.635 471.406 253.087C469.305 255.468 467.274 257.324 465.313 258.655C463.001 260.196 460.69 261.247 458.379 261.807C455.507 262.298 452.95 262.508 450.709 262.438C448.468 262.298 446.437 261.947 444.615 261.387C442.794 260.827 441.113 260.126 439.573 259.286C438.032 258.445 436.561 257.535 435.16 256.554C434.249 255.924 433.234 254.873 432.113 253.402C430.992 251.931 429.942 250.18 428.961 248.149C427.981 246.047 427.175 243.736 426.545 241.214C425.915 238.693 425.669 236.101 425.809 233.439C425.95 230.708 426.58 227.976 427.701 225.244C428.821 222.512 430.607 219.886 433.059 217.364C436.771 213.582 440.728 211.13 444.931 210.01C449.203 208.819 453.231 208.504 457.013 209.064C460.795 209.554 464.157 210.64 467.099 212.321C470.04 214.002 472.107 215.823 473.297 217.784C474.488 219.746 475.363 221.252 475.924 222.302C476.554 223.283 477.009 224.053 477.29 224.614C477.64 225.104 477.92 225.489 478.13 225.77C478.41 225.98 478.796 226.295 479.286 226.715C479.636 227.065 480.056 227.451 480.547 227.871C480.967 228.221 481.457 228.641 482.017 229.132C482.578 229.622 483.208 230.147 483.908 230.708Z" fill="white"/>
<path d="M509.649 251.091C511.61 251.091 513.431 250.88 515.112 250.46C516.513 250.11 517.843 249.55 519.104 248.779C520.435 247.939 521.31 246.713 521.731 245.102C523.131 245.382 524.322 245.627 525.303 245.837C526.283 245.977 527.124 246.117 527.824 246.257C528.595 246.468 529.26 246.608 529.82 246.678C530.381 246.818 531.046 246.958 531.817 247.098C532.517 247.238 533.357 247.413 534.338 247.623C535.389 247.763 536.614 247.974 538.015 248.254C536.965 248.114 535.879 248.219 534.758 248.569C533.708 248.919 532.692 249.304 531.711 249.725C530.591 250.215 529.54 250.81 528.56 251.511C527.929 251.931 527.194 252.561 526.353 253.402C525.583 254.243 524.462 255.048 522.991 255.819C521.521 256.589 519.559 257.254 517.108 257.815C514.727 258.305 511.645 258.48 507.863 258.34C503.31 258.2 499.493 257.395 496.411 255.924C493.329 254.383 490.843 252.526 488.951 250.355C487.06 248.114 485.695 245.697 484.854 243.105C484.014 240.514 483.558 238.097 483.488 235.856C483.418 233.614 484.084 231.268 485.484 228.816C486.885 226.365 488.846 224.123 491.368 222.092C493.959 220.061 497.076 218.415 500.718 217.154C504.36 215.823 508.353 215.158 512.695 215.158C515.217 215.158 517.528 215.473 519.629 216.103C521.801 216.664 523.762 217.434 525.513 218.415C527.334 219.395 528.91 220.516 530.241 221.777C531.571 222.968 532.692 224.194 533.603 225.454C534.513 226.785 535.284 228.186 535.914 229.657C536.474 230.918 536.93 232.354 537.28 233.965C537.63 235.576 537.735 237.222 537.595 238.903C532.272 239.043 527.964 239.148 524.672 239.218C521.45 239.288 518.929 239.323 517.108 239.323H508.808C507.547 239.323 505.901 239.358 503.87 239.428C501.839 239.498 499.353 239.603 496.411 239.743C496.761 242.545 497.637 244.716 499.037 246.257C500.508 247.728 502.049 248.849 503.66 249.62C505.481 250.46 507.477 250.95 509.649 251.091ZM500.193 232.179C502.434 232.319 504.29 232.424 505.761 232.494C507.302 232.564 508.563 232.634 509.543 232.704C510.594 232.774 511.435 232.809 512.065 232.809H514.691C516.443 232.809 519.699 232.704 524.462 232.494C524.252 229.412 523.587 227.065 522.466 225.454C521.415 223.843 520.295 222.653 519.104 221.882C517.703 221.042 516.162 220.551 514.481 220.411C509.929 220.481 506.532 221.427 504.29 223.248C502.119 225.069 500.753 228.046 500.193 232.179Z" fill="white"/>
<path d="M540.747 217.679C542.078 217.749 543.268 217.784 544.319 217.784C545.44 217.714 546.385 217.644 547.156 217.574C548.066 217.504 548.872 217.434 549.572 217.364C550.623 217.224 551.708 217.049 552.829 216.839C553.809 216.699 554.825 216.524 555.876 216.314C556.996 216.033 558.082 215.718 559.133 215.368C558.712 216.419 558.362 217.329 558.082 218.1C557.802 218.87 557.592 219.536 557.452 220.096C557.241 220.726 557.136 221.252 557.136 221.672C557.066 222.162 557.031 222.758 557.031 223.458C556.961 224.649 556.961 226.575 557.031 229.237C560.673 226.085 563.72 223.633 566.172 221.882C568.693 220.131 570.689 218.765 572.16 217.784C573.911 216.664 575.277 215.928 576.258 215.578C578.849 215.158 581.125 215.753 583.087 217.364C583.927 218.065 584.733 219.01 585.503 220.201C586.273 221.322 586.939 222.828 587.499 224.719C588.059 226.61 588.48 228.886 588.76 231.548C589.04 234.14 589.075 237.257 588.865 240.899C587.394 241.039 586.063 241.179 584.873 241.319C583.752 241.459 582.806 241.564 582.036 241.635C581.125 241.775 580.285 241.845 579.514 241.845L576.678 242.16C575.697 242.3 574.471 242.44 573.001 242.58C571.6 242.65 569.884 242.79 567.853 243C570.794 240.619 572.685 238.553 573.526 236.801C574.436 234.98 574.822 233.474 574.682 232.284C574.542 230.953 573.911 229.797 572.791 228.816C571.46 228.046 570.024 227.766 568.483 227.976C567.152 228.116 565.611 228.711 563.86 229.762C562.109 230.813 560.253 232.774 558.292 235.646C558.432 240.129 558.572 243.841 558.712 246.783C558.922 249.725 559.098 252.106 559.238 253.927C559.448 256.029 559.623 257.675 559.763 258.865C559.973 259.916 560.393 261.037 561.024 262.228C561.514 263.208 562.214 264.294 563.125 265.485C564.035 266.675 565.226 267.866 566.697 269.057C563.615 268.917 561.094 268.917 559.133 269.057C557.942 269.127 556.891 269.197 555.981 269.267C555 269.407 553.949 269.547 552.829 269.687C551.848 269.827 550.693 269.967 549.362 270.108C548.101 270.318 546.7 270.528 545.159 270.738C545.72 269.967 546.175 269.057 546.525 268.006C546.875 267.026 547.156 266.08 547.366 265.169C547.646 264.119 547.856 263.033 547.996 261.912C548.066 260.932 548.101 259.461 548.101 257.5C548.171 255.538 548.136 253.332 547.996 250.88C547.926 248.359 547.821 245.767 547.681 243.105C547.541 240.374 547.366 237.817 547.156 235.436C546.945 233.054 546.7 230.988 546.42 229.237C546.21 227.416 545.965 226.155 545.685 225.454C545.334 224.614 544.914 223.773 544.424 222.933C544.004 222.162 543.478 221.357 542.848 220.516C542.218 219.606 541.517 218.66 540.747 217.679Z" fill="white"/>
</svg>
